<?xml version="1.0" encoding="utf-8"?>
<!-- Generator: Adobe Illustrator 25.2.1, SVG Export Plug-In . SVG Version: 6.00 Build 0)  -->
<svg version="1.1" id="Laag_1" xmlns="http://www.w3.org/2000/svg" xmlns:xlink="http://www.w3.org/1999/xlink" x="0px" y="0px"
	 viewBox="0 0 54 54" style="enable-background:new 0 0 54 54;" xml:space="preserve">
<style type="text/css">
	.st0{fill:#FFFFFF;}
</style>
<g>
	<path class="st0" d="M27,0C12.1,0,0,12.1,0,27c0,14.9,12.1,27,27,27c14.9,0,27-12.1,27-27C54,12.1,41.9,0,27,0 M41.4,36.3
		L41.4,36.3l0,2.5c0,0.3-0.2,0.6-0.6,0.6h-2.5c-0.3,0-0.6-0.2-0.6-0.6v-2.2c0-0.1-0.1-0.2-0.2-0.2H29c-0.1,0-0.2,0.1-0.2,0.2v2.2
		c0,0.3-0.2,0.6-0.6,0.6h-2.5c-0.3,0-0.6-0.2-0.6-0.6v-2.2c0-0.1-0.1-0.2-0.2-0.2h-8.6c-0.1,0-0.2,0.1-0.2,0.2v2.2
		c0,0.3-0.2,0.6-0.6,0.6h-2.5c-0.3,0-0.6-0.2-0.6-0.6v-3v-0.6c0-0.3,0.2-0.6,0.6-0.6h27.7c0.3,0,0.6,0.2,0.6,0.6V36.3z M40.9,32.2
		c-0.2,0.2-0.5,0.3-0.8,0.3l-26.1,0c-0.3,0-0.7-0.2-0.9-0.4c-1-1.2-1.6-2.8-1.6-4.6c0-4,3.2-7.2,7.2-7.2c1.4,0,2.6,0.4,3.7,1
		c0.8,0.5,1.6,1.2,2.1,1.9c0,0,0,0,0.1,0c0,0,0,0,0-0.1c-0.9-1.7-2.4-3.1-4.2-3.7c1.3-2.9,4.2-4.8,7.6-4.8c4.3,0,7.8,3.2,8.3,7.3
		C35,22.3,33.9,23,33.1,24c0,0,0,0,0,0c0,0,0,0,0,0c0.3-0.3,0.6-0.5,0.9-0.7c0.8-0.5,1.8-0.8,2.9-0.8c3.1,0,5.6,2.5,5.6,5.6
		C42.5,29.8,41.9,31.2,40.9,32.2"/>
</g>
<g>
</g>
<g>
</g>
<g>
</g>
<g>
</g>
<g>
</g>
<g>
</g>
<g>
</g>
<g>
</g>
<g>
</g>
<g>
</g>
<g>
</g>
<g>
</g>
<g>
</g>
<g>
</g>
<g>
</g>
</svg>
