<?xml version="1.0" encoding="utf-8"?>
<!-- Generator: Adobe Illustrator 25.2.1, SVG Export Plug-In . SVG Version: 6.00 Build 0)  -->
<svg version="1.1" id="Laag_1" xmlns="http://www.w3.org/2000/svg" xmlns:xlink="http://www.w3.org/1999/xlink" x="0px" y="0px"
	 viewBox="0 0 23.3 15.2" style="enable-background:new 0 0 23.3 15.2;" xml:space="preserve">
<style type="text/css">
	.st0{fill-rule:evenodd;clip-rule:evenodd;fill:#FFFFFF;}
</style>
<g>
	<path class="st0" d="M17.1,0c-0.2,0-0.4,0-0.6,0c-1.9,0-3.6,0.8-4.9,2.1C10.4,0.8,8.6,0,6.7,0C3,0,0,3,0,6.7v8.5h3.6V6.8
		c0-1.5,1.3-3,2.8-3.1c0.1,0,0.2,0,0.3,0c1.7,0,3,1.4,3.1,3v8.5h3.7V6.8c0-1.5,1.3-3,2.8-3.1c0.1,0,0.2,0,0.3,0c1.7,0,3.1,1.4,3.1,3
		v8.5h3.7V6.8c0-1.7-0.6-3.3-1.8-4.6C20.4,1,18.8,0.2,17.1,0z"/>
</g>
<g>
</g>
<g>
</g>
<g>
</g>
<g>
</g>
<g>
</g>
<g>
</g>
<g>
</g>
<g>
</g>
<g>
</g>
<g>
</g>
<g>
</g>
<g>
</g>
<g>
</g>
<g>
</g>
<g>
</g>
</svg>
