<?xml version="1.0" encoding="utf-8"?>
<!-- Generator: Adobe Illustrator 25.3.1, SVG Export Plug-In . SVG Version: 6.00 Build 0)  -->
<svg version="1.1" id="Laag_1" xmlns="http://www.w3.org/2000/svg" xmlns:xlink="http://www.w3.org/1999/xlink" x="0px" y="0px"
	 viewBox="0 0 62 50.3" style="enable-background:new 0 0 62 50.3;" xml:space="preserve">
<style type="text/css">
	.st0{fill:#FFFFFF;}
</style>
<g>
	<g>
		<path class="st0" d="M20.9,2.7C19.6,1.2,17,0,15.1,0L1.7,0c-1.9,0-2.3,1.2-1,2.7l17.5,19.5L28.3,11L20.9,2.7z"/>
		<path class="st0" d="M41.1,47.6c1.3,1.5,3.9,2.7,5.8,2.7l13.4,0c1.9,0,2.3-1.2,1-2.7L43.7,28.1L33.7,39.3L41.1,47.6z"/>
	</g>
	<path class="st0" d="M41.1,2.7C42.5,1.2,45.1,0,46.9,0l13.4,0c1.9,0,2.3,1.2,1,2.7L20.9,47.6c-1.3,1.5-3.9,2.7-5.8,2.7l-13.4,0
		c-1.9,0-2.3-1.2-1-2.7L41.1,2.7z"/>
</g>
</svg>
