<?xml version="1.0" encoding="utf-8"?>
<!-- Generator: Adobe Illustrator 25.2.1, SVG Export Plug-In . SVG Version: 6.00 Build 0)  -->
<svg version="1.1" id="Laag_1" xmlns="http://www.w3.org/2000/svg" xmlns:xlink="http://www.w3.org/1999/xlink" x="0px" y="0px"
	 viewBox="0 0 78 46.4" style="enable-background:new 0 0 78 46.4;" xml:space="preserve">
<style type="text/css">
	.st0{fill:#FFFFFF;}
</style>
<g>
	<path class="st0" d="M66.2,13.1c-1.1-0.2-2.3,0.4-3.3,2c-0.9,1.2-1.4,2.5-1.7,3.8C61,19.6,61,20.4,61,21.2c0,0.9,0.2,1.9,0.6,2.9
		c0.5,1.2,1.1,1.9,1.9,2.1c0.8,0.2,1.7-0.2,2.6-1c1.2-1.1,2-2.6,2.4-4.7c0.1-0.7,0.2-1.5,0.2-2.4c0-0.9-0.2-1.9-0.6-2.9
		C67.6,13.9,67,13.3,66.2,13.1z"/>
	<path class="st0" d="M70.7,0H7.2C3.2,0,0,3.3,0,7.3v24.2c0,4,3.3,7.3,7.3,7.3h30.1l13.7,7.7L48,38.8h22.8c4,0,7.3-3.3,7.3-7.3V7.3
		C78,3.3,74.7,0,70.7,0z M31.9,31.9c0.1,0.8-0.1,1.5-0.4,2.1c-0.4,0.7-1,1.1-1.7,1.1c-0.8,0.1-1.7-0.3-2.5-1.2c-3-3-5.3-7.6-7-13.6
		c-2.1,4.1-3.6,7.1-4.6,9.2c-1.9,3.6-3.5,5.5-4.8,5.5c-0.9,0.1-1.6-0.7-2.2-2.2C7,28.8,5.3,20.7,3.4,8.7C3.3,7.9,3.4,7.2,3.9,6.6
		c0.4-0.6,1.1-0.9,2-1c1.6-0.1,2.6,0.6,2.8,2.3c1,6.7,2.1,12.3,3.2,16.9l7-13.3c0.6-1.2,1.4-1.8,2.4-1.9c1.4-0.1,2.3,0.8,2.6,2.7
		c0.8,4.2,1.8,7.8,3,10.9c0.8-8.1,2.2-13.9,4.2-17.5c0.5-0.9,1.2-1.3,2.1-1.4c0.7-0.1,1.4,0.2,2,0.6c0.6,0.5,0.9,1.1,1,1.8
		c0,0.6-0.1,1.1-0.3,1.5c-1.2,2.3-2.3,6.2-3.1,11.5C32,25,31.7,29,31.9,31.9z M51.5,26.9c-1.9,3.2-4.4,4.8-7.5,4.8
		c-0.5,0-1.1-0.1-1.7-0.2c-2.3-0.5-4-1.7-5.1-3.7c-1-1.8-1.5-3.9-1.5-6.3c0-3.3,0.8-6.3,2.5-9c1.9-3.2,4.4-4.8,7.5-4.8
		c0.5,0,1.1,0.1,1.7,0.2c2.2,0.5,4,1.7,5.1,3.7c1,1.7,1.5,3.8,1.5,6.3C54,21.2,53.2,24.2,51.5,26.9z M71.5,26.9
		c-1.9,3.2-4.4,4.8-7.5,4.8c-0.5,0-1.1-0.1-1.7-0.2c-2.3-0.5-4-1.7-5.1-3.7c-1-1.8-1.5-3.9-1.5-6.3c0-3.3,0.8-6.3,2.5-9
		c1.9-3.2,4.4-4.8,7.5-4.8c0.5,0,1.1,0.1,1.7,0.2c2.3,0.5,4,1.7,5.1,3.7c1,1.7,1.5,3.8,1.5,6.3C74,21.2,73.2,24.2,71.5,26.9z"/>
	<path class="st0" d="M46.2,13.1c-1.1-0.2-2.3,0.4-3.3,2c-0.9,1.2-1.4,2.5-1.7,3.8C41,19.6,41,20.4,41,21.2c0,0.9,0.2,1.9,0.6,2.9
		c0.5,1.2,1.1,1.9,1.9,2.1c0.8,0.2,1.7-0.2,2.6-1c1.2-1.1,2-2.6,2.4-4.7c0.2-0.7,0.2-1.5,0.2-2.4c0-0.9-0.2-1.9-0.6-2.9
		C47.6,13.9,47,13.3,46.2,13.1z"/>
</g>
<g>
</g>
<g>
</g>
<g>
</g>
<g>
</g>
<g>
</g>
<g>
</g>
<g>
</g>
<g>
</g>
<g>
</g>
<g>
</g>
<g>
</g>
<g>
</g>
<g>
</g>
<g>
</g>
<g>
</g>
</svg>
