<?xml version="1.0" encoding="utf-8"?>
<!-- Generator: Adobe Illustrator 25.2.1, SVG Export Plug-In . SVG Version: 6.00 Build 0)  -->
<svg version="1.1" id="Laag_1" xmlns="http://www.w3.org/2000/svg" xmlns:xlink="http://www.w3.org/1999/xlink" x="0px" y="0px"
	 viewBox="0 0 78 24.7" style="enable-background:new 0 0 78 24.7;" xml:space="preserve">
<style type="text/css">
	.st0{fill:#FFFFFF;}
</style>
<g>
	<path class="st0" d="M78,19.4V7.6c0-1.7-1.1-2.4-3.6-2.4H64v14.3H70V9.1H72v10.3H78"/>
	<path class="st0" d="M46,22.4V5.2h-6v10.3h-1.9V5.2H32v11.9c0,1.6,1.1,2.4,3.6,2.4H40v1.4h-8v3.9h10.4C44.9,24.7,46,24,46,22.4"/>
	<path class="st0" d="M30,19.4V0H24v15.5H22V5.2h-2.4c-2.5,0-3.6,0.7-3.6,2.4v9.5c0,1.6,1.1,2.4,3.6,2.4H30"/>
	<path class="st0" d="M14,19.4V7.6c0-1.7-1.1-2.4-3.6-2.4H0v3.9h8v6.4H6.1v-5H3.6c-2.5,0-3.6,0.7-3.6,2.4v4.2c0,1.6,1.1,2.4,3.6,2.4
		H14"/>
	<path class="st0" d="M48,5.2V17c0,1.7,1.1,2.4,3.6,2.4H62v-3.9h-8V9.1H56v5h2.5c2.5,0,3.6-0.7,3.6-2.4V7.5c0-1.6-1.1-2.4-3.6-2.4
		H48"/>
</g>
<g>
</g>
<g>
</g>
<g>
</g>
<g>
</g>
<g>
</g>
<g>
</g>
<g>
</g>
<g>
</g>
<g>
</g>
<g>
</g>
<g>
</g>
<g>
</g>
<g>
</g>
<g>
</g>
<g>
</g>
</svg>
