<?xml version="1.0" encoding="utf-8"?>
<!-- Generator: Adobe Illustrator 25.2.1, SVG Export Plug-In . SVG Version: 6.00 Build 0)  -->
<svg version="1.1" id="Laag_1" xmlns="http://www.w3.org/2000/svg" xmlns:xlink="http://www.w3.org/1999/xlink" x="0px" y="0px"
	 viewBox="0 0 54 54" style="enable-background:new 0 0 54 54;" xml:space="preserve">
<style type="text/css">
	.st0{fill:#FFFFFF;}
</style>
<g id="XMLID_1_">
	<path id="XMLID_3_" class="st0" d="M43.1,48.1c-2.3-1.8-5.8-3.1-9.5-4.5c-4.4-1.7-9.3-3.6-13-6.6c-4.2-3.3-6.2-7.6-6.2-12.9
		c0-4.8,2-8.9,5.7-11.8c4.2-3.3,10.6-5.1,18.5-5.1c2.2,0,4.2,0.1,6.2,0.4c0.2,0,0.3-0.1,0.4-0.2c0.1-0.2,0-0.3-0.1-0.5
		C40.1,2.5,33.7,0,27,0C19.8,0,13,2.8,7.9,7.9C2.8,13,0,19.8,0,27c0,7.2,2.8,14,7.9,19.1C13,51.2,19.8,54,27,54
		c5.8,0,11.4-1.8,16.1-5.3c0.1-0.1,0.2-0.2,0.2-0.3S43.2,48.2,43.1,48.1z"/>
	<path id="XMLID_2_" class="st0" d="M53.9,24.5c0-0.1-0.1-0.2-0.1-0.3c-5.6-4.7-10.2-6.6-15.7-6.6c-3,0-5.2,0.6-6.7,1.8
		c-1.3,1-2,2.4-2,4.1c0,4.6,5.7,6.8,12.2,9.2c3.4,1.3,6.9,2.6,10.1,4.3c0.1,0,0.1,0,0.2,0c0,0,0.1,0,0.1,0c0.1,0,0.2-0.1,0.2-0.2
		c1.2-3.1,1.8-6.5,1.8-9.8C54,26.2,54,25.4,53.9,24.5z"/>
</g>
<g>
</g>
<g>
</g>
<g>
</g>
<g>
</g>
<g>
</g>
<g>
</g>
<g>
</g>
<g>
</g>
<g>
</g>
<g>
</g>
<g>
</g>
<g>
</g>
<g>
</g>
<g>
</g>
<g>
</g>
</svg>
