<?xml version="1.0" encoding="utf-8"?>
<!-- Generator: Adobe Illustrator 25.2.1, SVG Export Plug-In . SVG Version: 6.00 Build 0)  -->
<svg version="1.1" id="Laag_1" xmlns="http://www.w3.org/2000/svg" xmlns:xlink="http://www.w3.org/1999/xlink" x="0px" y="0px"
	 viewBox="0 0 47.5 54" style="enable-background:new 0 0 47.5 54;" xml:space="preserve">
<style type="text/css">
	.st0{opacity:0.7;fill:#FFFFFF;}
	.st1{fill:none;}
	.st2{fill:#FFFFFF;}
</style>
<g>
	<path class="st0" d="M41.1,10.1c-0.2,0-4.3-0.3-4.3-0.3s-2.9-2.9-3.2-3.2c-0.1-0.1-0.3-0.2-0.4-0.2L30.8,54l16.7-3.6
		c0,0-5.8-39.6-5.9-39.9C41.5,10.3,41.3,10.1,41.1,10.1z"/>
	<g>
		<path class="st1" d="M25.9,3.4c0.4,1.1,0.6,2.5,0.6,4.2c0,0.2,0,0.4,0,0.6c0.9-0.3,1.8-0.6,2.6-0.8C28.4,5.4,27.4,3.7,25.9,3.4z"
			/>
		<path class="st1" d="M19.2,10.5c1.9-0.6,3.7-1.1,5.4-1.7c0-0.1,0-0.2,0-0.3c0-2.1-0.3-3.6-0.7-4.7C22.3,4.6,20.3,6.5,19.2,10.5z"
			/>
		<path class="st1" d="M22.8,2.2c-0.3-0.2-0.6-0.3-0.9-0.3c-5,0-7.8,6.6-9,10.6c1.4-0.4,2.8-0.9,4.3-1.3C18.2,5.8,20.5,3.2,22.8,2.2
			z"/>
	</g>
	<g>
		<path class="st1" d="M19.2,10.5c1.9-0.6,3.7-1.1,5.4-1.7c0-0.1,0-0.2,0-0.3c0-2.1-0.3-3.6-0.7-4.7C22.3,4.6,20.3,6.5,19.2,10.5z"
			/>
		<path class="st1" d="M22.8,2.2c-0.3-0.2-0.6-0.3-0.9-0.3c-5,0-7.8,6.6-9,10.6c1.4-0.4,2.8-0.9,4.3-1.3C18.2,5.8,20.5,3.2,22.8,2.2
			z"/>
		<path class="st1" d="M25.9,3.4c0.4,1.1,0.6,2.5,0.6,4.2c0,0.2,0,0.4,0,0.6c0.9-0.3,1.8-0.6,2.6-0.8C28.4,5.4,27.4,3.7,25.9,3.4z"
			/>
		<path class="st2" d="M33.6,6.6c-0.3-0.3-0.9-0.2-1.2-0.2c0,0-0.6,0.2-1.6,0.5c-1-2.8-2.7-5.4-5.7-5.4c-0.1,0-0.2,0-0.3,0
			C24,0.5,23,0,22.1,0c-7,0-10.3,8.7-11.3,13.1C8,14,6.1,14.6,5.8,14.6c-1.5,0.5-1.5,0.5-1.7,1.9C3.9,17.7,0,48.2,0,48.2L30.8,54
			 M24.6,8.5c0,0.1,0,0.2,0,0.3c-1.7,0.5-3.5,1.1-5.4,1.7c1-4,3-5.9,4.7-6.7C24.3,4.9,24.6,6.4,24.6,8.5z M21.9,1.9
			c0.3,0,0.6,0.1,0.9,0.3c-2.2,1-4.6,3.7-5.6,9c-1.5,0.5-2.9,0.9-4.3,1.3C14.1,8.4,16.9,1.9,21.9,1.9z M23.1,25.4c0,0-1.8-1-4-1
			c-3.3,0-3.4,2.1-3.4,2.6c0,2.8,7.3,3.9,7.3,10.4c0,5.1-3.3,8.5-7.7,8.5c-5.3,0-8-3.3-8-3.3l1.4-4.7c0,0,2.8,2.4,5.1,2.4
			c1.5,0,2.2-1.2,2.2-2.1c0-3.6-6-3.8-6-9.8c0-5,3.6-9.9,10.9-9.9c2.8,0,4.2,0.8,4.2,0.8L23.1,25.4z M26.5,8.2c0-0.2,0-0.3,0-0.6
			c0-1.7-0.2-3.1-0.6-4.2c1.5,0.2,2.6,2,3.2,4C28.3,7.7,27.4,7.9,26.5,8.2z"/>
	</g>
</g>
<g>
</g>
<g>
</g>
<g>
</g>
<g>
</g>
<g>
</g>
<g>
</g>
<g>
</g>
<g>
</g>
<g>
</g>
<g>
</g>
<g>
</g>
<g>
</g>
<g>
</g>
<g>
</g>
<g>
</g>
</svg>
